<?xml version="1.0" encoding="UTF-8" standalone="no"?>
<svg
   xmlns:osb="http://www.openswatchbook.org/uri/2009/osb"
   xmlns:dc="http://purl.org/dc/elements/1.1/"
   xmlns:cc="http://creativecommons.org/ns#"
   xmlns:rdf="http://www.w3.org/1999/02/22-rdf-syntax-ns#"
   xmlns:svg="http://www.w3.org/2000/svg"
   xmlns="http://www.w3.org/2000/svg"
   xmlns:sodipodi="http://sodipodi.sourceforge.net/DTD/sodipodi-0.dtd"
   xmlns:inkscape="http://www.inkscape.org/namespaces/inkscape"
   version="1.1"
   id="svg28"
   xml:space="preserve"
   width="279.81909"
   height="50.05772"
   viewBox="0 0 279.8191 50.057719"
   sodipodi:docname="black-logo.svg"
   inkscape:version="1.0.1 (3bc2e813f5, 2020-09-07)"><metadata
     id="metadata34"><rdf:RDF><cc:Work
         rdf:about=""><dc:format>image/svg+xml</dc:format><dc:type
           rdf:resource="http://purl.org/dc/dcmitype/StillImage" /><dc:title /></cc:Work></rdf:RDF></metadata><defs
     id="defs32"><linearGradient
       id="linearGradient3427"
       osb:paint="solid"><stop
         style="stop-color:#000000;stop-opacity:1;"
         offset="0"
         id="stop3425" /></linearGradient></defs><sodipodi:namedview
     pagecolor="#ffffff"
     bordercolor="#666666"
     borderopacity="1"
     objecttolerance="10"
     gridtolerance="10"
     guidetolerance="10"
     inkscape:pageopacity="0"
     inkscape:pageshadow="2"
     inkscape:window-width="640"
     inkscape:window-height="480"
     id="namedview30"
     showgrid="true"
     inkscape:snap-to-guides="true"
     inkscape:current-layer="g1809"
     inkscape:document-rotation="0"
     inkscape:snap-global="true"
     showborder="false"
     inkscape:snap-grids="false"
     inkscape:snap-intersection-paths="true"
     showguides="true"
     inkscape:guide-bbox="true"
     inkscape:snap-bbox="true"
     inkscape:snap-smooth-nodes="true"
     inkscape:object-paths="true"
     inkscape:snap-midpoints="true"
     inkscape:snap-text-baseline="true"><inkscape:grid
       type="axonomgrid"
       id="grid414"
       visible="false"
       originx="-26.390457"
       originy="-86.463814" /></sodipodi:namedview><g
     inkscape:groupmode="layer"
     id="g1809"
     inkscape:label="font-dark"
     style="display:inline"
     transform="translate(-26.390456,-86.463816)"><text
       xml:space="preserve"
       style="font-size:40px;line-height:1.25;font-family:'Playfair Display SC';-inkscape-font-specification:'Playfair Display SC'"
       x="78.44133"
       y="102.63441"
       id="text1786"><tspan
         sodipodi:role="line"
         id="tspan1784"
         x="78.44133"
         y="102.63441" /></text><g
       id="g1807"
       transform="translate(0,-1.2397766e-5)"
       style="fill:#1d2021"><g
         aria-label="C"
         transform="scale(-1.0102406,-0.9898632)"
         id="text1790"
         style="font-style:normal;font-variant:normal;font-weight:normal;font-stretch:normal;font-size:68.6305px;line-height:1.25;font-family:'Playfair Display SC';-inkscape-font-specification:'Playfair Display SC, Normal';font-variant-ligatures:normal;font-variant-caps:normal;font-variant-numeric:normal;font-variant-east-asian:normal;display:inline;fill:#1d2021;fill-opacity:1;stroke:none;stroke-width:0.5;stroke-miterlimit:4;stroke-dasharray:none"><path
           d="m -281.28107,-137.86133 q 4.11783,0 7.00032,1.16672 2.88248,1.16672 5.6277,3.29427 0.75493,0.61767 1.30398,0.61767 1.37261,0 1.78439,-4.11783 h 1.5785 q -0.27452,4.46098 -0.27452,15.78502 h -1.5785 q -0.75494,-4.46099 -1.37261,-6.38264 -0.61768,-1.99028 -2.05892,-3.77468 -2.05891,-2.67659 -5.28455,-3.98057 -3.157,-1.37261 -6.86305,-1.37261 -4.46098,0 -7.82387,2.95111 -3.29427,2.95112 -5.14729,8.44156 -1.85302,5.42181 -1.85302,12.76527 0,7.48072 1.99028,12.833903 1.99028,5.353179 5.49044,8.16703 3.56879,2.74522 8.02977,2.74522 3.43152,0 6.65716,-1.30398 3.22563,-1.303979 5.07865,-3.911938 1.37261,-1.921654 1.99029,-4.11783 0.61767,-2.196175 1.16672,-6.725785 h 1.5785 q 0,11.804442 0.27452,16.471316 h -1.5785 q -0.20589,-2.196176 -0.61767,-3.088373 -0.34316,-0.960827 -1.02946,-0.960827 -0.54905,0 -1.44124,0.549044 -3.08838,2.196176 -5.90223,3.362895 -2.81385,1.098088 -6.79442,1.098088 -6.51989,0 -11.46129,-2.951112 -4.87276,-2.951111 -7.61798,-8.510182 -2.67659,-5.627699 -2.67659,-13.382949 0,-7.54935 2.74522,-13.38295 2.81385,-5.83359 7.75524,-9.05922 5.01003,-3.22564 11.32403,-3.22564 z"
           style="fill:#1d2021;fill-opacity:1;stroke:none;stroke-width:0.5;stroke-miterlimit:4;stroke-dasharray:none"
           id="path356" /></g><g
         aria-label="ONUNDRUMS "
         transform="scale(-1)"
         id="text1796"
         style="font-style:normal;font-variant:normal;font-weight:normal;font-stretch:normal;font-size:33.3333px;line-height:1;font-family:'Playfair Display SC';-inkscape-font-specification:'Playfair Display SC, Normal';font-variant-ligatures:normal;font-variant-caps:normal;font-variant-numeric:normal;font-variant-east-asian:normal;letter-spacing:0px;display:inline;fill:#1d2021;fill-opacity:1;stroke:none;stroke-width:0.5;stroke-miterlimit:4;stroke-dasharray:none"><path
           d="m -254.68544,-136.52155 q 3.16667,0 5.53333,1.43334 2.4,1.43333 3.7,4.16666 1.33333,2.7 1.33333,6.46666 0,3.66666 -1.36667,6.49999 -1.33333,2.83333 -3.76666,4.4 -2.4,1.56666 -5.46666,1.56666 -3.16667,0 -5.56666,-1.43333 -2.36667,-1.43333 -3.7,-4.13333 -1.3,-2.73333 -1.3,-6.49999 0,-3.66666 1.33333,-6.5 1.36667,-2.83333 3.76667,-4.39999 2.43333,-1.56667 5.49999,-1.56667 z m -0.13333,0.6 q -2.13333,0 -3.76666,1.5 -1.6,1.46667 -2.5,4.13333 -0.86667,2.66667 -0.86667,6.1 0,3.46666 0.96667,6.09999 1,2.63333 2.66666,4.06666 1.66667,1.43333 3.73333,1.43333 2.13333,0 3.73333,-1.46666 1.63333,-1.5 2.5,-4.16666 0.9,-2.66667 0.9,-6.1 0,-3.46666 -1,-6.09999 -0.96667,-2.63333 -2.63333,-4.06666 -1.66667,-1.43334 -3.73333,-1.43334 z"
           id="path359"
           style="fill:#1d2021" /><path
           d="m -220.28554,-135.38821 q -1.16667,0.0667 -1.73333,0.36666 -0.56667,0.26667 -0.76667,0.93333 -0.2,0.63334 -0.2,1.9 v 19.89998 h -0.76667 l -13.99998,-21.63331 v 17.59998 q 0,1.3 0.2,1.93334 0.23333,0.63333 0.86666,0.93333 0.63334,0.26666 1.96667,0.33333 v 0.66667 q -1.2,-0.1 -3.4,-0.1 -2,0 -3.1,0.1 v -0.66667 q 1.16667,-0.0667 1.73334,-0.33333 0.56666,-0.3 0.76666,-0.93333 0.2,-0.66667 0.2,-1.93334 v -16.19998 q 0,-1.26667 -0.2,-1.83333 -0.2,-0.56667 -0.76666,-0.76667 -0.53334,-0.2 -1.73334,-0.26666 v -0.66667 q 1.1,0.1 3.1,0.1 1.5,0 2.6,-0.1 l 11.76665,18.13332 v -14.26666 q 0,-1.3 -0.23333,-1.93333 -0.2,-0.63333 -0.83333,-0.9 -0.63333,-0.3 -1.96667,-0.36666 v -0.66667 q 1.2,0.1 3.4,0.1 2,0 3.1,-0.1 z"
           id="path361"
           style="fill:#1d2021" /><path
           d="m -197.25225,-135.38821 q -1.16667,0.0667 -1.73333,0.36666 -0.56667,0.26667 -0.76667,0.93333 -0.2,0.63334 -0.2,1.9 v 10.03333 q 0,2.39999 -0.33333,4.13333 -0.3,1.69999 -1.03333,2.93333 -0.83334,1.43333 -2.46667,2.26666 -1.6,0.83333 -3.63333,0.83333 -3.66666,0 -5.59999,-1.79999 -1.46667,-1.36667 -1.96667,-3.1 -0.5,-1.73333 -0.5,-5.16666 v -10.46666 q 0,-1.26667 -0.2,-1.83333 -0.2,-0.56667 -0.76666,-0.76667 -0.53334,-0.2 -1.73333,-0.26666 v -0.66667 q 1.39999,0.1 4.26666,0.1 2.7,0 4.23333,-0.1 v 0.66667 q -1.2,0.0667 -1.76667,0.26666 -0.53333,0.2 -0.73333,0.76667 -0.2,0.56666 -0.2,1.83333 v 11.03332 q 0,2.66667 0.36667,4.43333 0.36666,1.76667 1.49999,2.83333 1.16667,1.06667 3.4,1.06667 3.53333,0 4.96666,-2.26667 1.43334,-2.26666 1.43334,-6.36666 v -10.39999 q 0,-1.8 -0.66667,-2.46666 -0.63333,-0.66667 -2.36666,-0.73333 v -0.66667 q 1.19999,0.1 3.39999,0.1 2,0 3.1,-0.1 z"
           id="path363"
           style="fill:#1d2021" /><path
           d="m -174.01897,-135.38821 q -1.16666,0.0667 -1.73333,0.36666 -0.56667,0.26667 -0.76667,0.93333 -0.2,0.63334 -0.2,1.9 v 19.89998 h -0.76666 l -13.99999,-21.63331 v 17.59998 q 0,1.3 0.2,1.93334 0.23334,0.63333 0.86667,0.93333 0.63333,0.26666 1.96666,0.33333 v 0.66667 q -1.2,-0.1 -3.39999,-0.1 -2,0 -3.1,0.1 v -0.66667 q 1.16666,-0.0667 1.73333,-0.33333 0.56667,-0.3 0.76667,-0.93333 0.2,-0.66667 0.2,-1.93334 v -16.19998 q 0,-1.26667 -0.2,-1.83333 -0.2,-0.56667 -0.76667,-0.76667 -0.53333,-0.2 -1.73333,-0.26666 v -0.66667 q 1.1,0.1 3.1,0.1 1.49999,0 2.59999,-0.1 l 11.76666,18.13332 v -14.26666 q 0,-1.3 -0.23333,-1.93333 -0.2,-0.63333 -0.83334,-0.9 -0.63333,-0.3 -1.96666,-0.36666 v -0.66667 q 1.2,0.1 3.4,0.1 1.99999,0 3.09999,-0.1 z"
           id="path365"
           style="fill:#1d2021" /><path
           d="m -162.31899,-136.05488 q 5.89999,0 8.83332,2.96666 2.93333,2.93333 2.93333,8.56666 0,3.63333 -1.43333,6.36666 -1.43333,2.73333 -4.16666,4.23333 -2.7,1.46667 -6.46666,1.46667 l -1.93334,-0.0333 q -1.86666,-0.0667 -2.73333,-0.0667 -2.73333,0 -4.13333,0.1 v -0.66667 q 1.2,-0.0667 1.73334,-0.26667 0.56666,-0.19999 0.76666,-0.76666 0.2,-0.56667 0.2,-1.83333 v -16.53332 q 0,-1.26667 -0.2,-1.83333 -0.2,-0.56667 -0.76666,-0.76667 -0.53334,-0.2 -1.73334,-0.26666 v -0.66667 q 1.16667,0.1 3.23333,0.1 l 2.83333,-0.0333 q 2.26667,-0.0667 3.03334,-0.0667 z m -0.83334,0.6 q -1.03333,0 -1.56666,0.23333 -0.5,0.23334 -0.7,0.83333 -0.2,0.6 -0.2,1.8 v 16.66665 q 0,1.2 0.2,1.8 0.2,0.6 0.7,0.83333 0.53333,0.23334 1.6,0.23334 3.53333,0 5.56666,-1.26667 2.03333,-1.3 2.83333,-3.76666 0.83333,-2.46666 0.83333,-6.29999 0,-3.83333 -0.9,-6.23333 -0.9,-2.43333 -2.93333,-3.63333 -2,-1.2 -5.43333,-1.2 z"
           id="path367"
           style="fill:#1d2021" /><path
           d="m -127.01907,-114.12157 q -0.76667,1.13333 -1.53333,1.63333 -0.76667,0.5 -2.03333,0.5 -1.36667,0 -2.26667,-0.8 -0.86667,-0.79999 -1.3,-2.79999 l -0.73333,-3.33333 q -0.4,-1.73333 -0.76667,-2.66667 -0.33333,-0.93333 -1.03333,-1.5 -0.7,-0.56666 -1.96666,-0.56666 h -3.16667 v 7.66666 q 0,1.26666 0.2,1.83333 0.2,0.56667 0.73333,0.76666 0.56667,0.2 1.76667,0.26667 v 0.66667 q -1.53333,-0.1 -4.23333,-0.1 -2.86666,0 -4.26666,0.1 v -0.66667 q 1.2,-0.0667 1.73333,-0.26667 0.56667,-0.19999 0.76667,-0.76666 0.2,-0.56667 0.2,-1.83333 v -16.53332 q 0,-1.26667 -0.2,-1.83333 -0.2,-0.56667 -0.76667,-0.76667 -0.53333,-0.2 -1.73333,-0.26666 v -0.66667 q 1.4,0.1 4.06666,0.1 l 3.6,-0.0333 q 0.63333,-0.0333 1.43333,-0.0333 3.86666,0 5.93333,1.63333 2.1,1.6 2.1,4.16667 0,1.3 -0.63334,2.63333 -0.6,1.3 -2.06666,2.36666 -1.43333,1.03334 -3.76667,1.4 l 0.4,0.0667 q 2.2,0.36666 3.2,1.33333 1,0.96667 1.46667,3.06666 l 0.83333,3.4 q 0.33333,1.53333 0.7,2.13333 0.36666,0.6 1,0.6 0.56666,0 0.93333,-0.3 0.4,-0.3 0.9,-0.96666 z m -12.33332,-21.26664 q -1.03334,0 -1.56667,0.23333 -0.5,0.23333 -0.7,0.83333 -0.2,0.6 -0.2,1.8 v 8.19999 h 2.23333 q 3.3,0 4.53333,-1.46666 1.23333,-1.46667 1.23333,-4.06667 0,-2.73333 -1.29999,-4.13333 -1.3,-1.39999 -4.23333,-1.39999 z"
           id="path369"
           style="fill:#1d2021" /><path
           d="m -105.8192,-135.38821 q -1.16666,0.0667 -1.73333,0.36666 -0.56667,0.26667 -0.76667,0.93333 -0.2,0.63334 -0.2,1.9 v 10.03333 q 0,2.39999 -0.33333,4.13333 -0.3,1.69999 -1.03333,2.93333 -0.83333,1.43333 -2.46667,2.26666 -1.59999,0.83333 -3.63333,0.83333 -3.66666,0 -5.59999,-1.79999 -1.46667,-1.36667 -1.96667,-3.1 -0.5,-1.73333 -0.5,-5.16666 v -10.46666 q 0,-1.26667 -0.19999,-1.83333 -0.2,-0.56667 -0.76667,-0.76667 -0.53333,-0.2 -1.73333,-0.26666 v -0.66667 q 1.4,0.1 4.26666,0.1 2.7,0 4.23333,-0.1 v 0.66667 q -1.2,0.0667 -1.76667,0.26666 -0.53333,0.2 -0.73333,0.76667 -0.2,0.56666 -0.2,1.83333 v 11.03332 q 0,2.66667 0.36667,4.43333 0.36666,1.76667 1.5,2.83333 1.16666,1.06667 3.39999,1.06667 3.53333,0 4.96667,-2.26667 1.43333,-2.26666 1.43333,-6.36666 v -10.39999 q 0,-1.8 -0.66667,-2.46666 -0.63333,-0.66667 -2.36666,-0.73333 v -0.66667 q 1.2,0.1 3.39999,0.1 2,0 3.1,-0.1 z"
           id="path371"
           style="fill:#1d2021" /><path
           d="m -77.285913,-135.38821 q -1.199999,0.0667 -1.766665,0.26666 -0.533333,0.2 -0.733333,0.76667 -0.199999,0.56666 -0.199999,1.83333 v 16.53332 q 0,1.26666 0.199999,1.83333 0.2,0.56667 0.733333,0.76666 0.566666,0.2 1.766665,0.26667 v 0.66667 q -1.533332,-0.1 -4.233329,-0.1 -2.866664,0 -4.266663,0.1 v -0.66667 q 1.199999,-0.0667 1.733332,-0.26667 0.566666,-0.19999 0.766666,-0.76666 0.2,-0.56667 0.2,-1.83333 v -17.86665 l -8.033326,21.56664 h -0.533333 l -8.399994,-21.63331 v 17.59998 q 0,1.3 0.200002,1.93334 0.233333,0.63333 0.866666,0.93333 0.633332,0.26666 1.966664,0.33333 v 0.66667 q -1.199998,-0.1 -3.399992,-0.1 -2,0 -3.1,0.1 v -0.66667 q 1.16666,-0.0667 1.73333,-0.33333 0.56667,-0.3 0.76667,-0.93333 0.2,-0.66667 0.2,-1.93334 v -16.19998 q 0,-1.26667 -0.2,-1.83333 -0.2,-0.56667 -0.76667,-0.76667 -0.53333,-0.2 -1.73333,-0.26666 v -0.66667 q 1.1,0.1 3.1,0.1 1.733327,0 2.833326,-0.1 l 7.333327,19.29998 7.16666,-19.19998 h 1.566665 q 2.699997,0 4.233329,-0.1 z"
           id="path373"
           style="fill:#1d2021" /><path
           d="m -67.352646,-136.42155 q 1.466665,0 2.299998,0.33334 0.866666,0.3 1.766665,0.9 0.733333,0.46666 1.133332,0.46666 0.3,0 0.466666,-0.33333 0.166667,-0.36667 0.266667,-1.13333 h 0.766666 q -0.166667,1.93333 -0.166667,6.79999 h -0.766666 q -0.2,-2.7 -1.566665,-4.53333 -1.333332,-1.86666 -3.899996,-1.86666 -1.799998,0 -2.933331,1.1 -1.133332,1.06666 -1.133332,2.76666 0,1.26666 0.566666,2.2 0.6,0.93333 1.499999,1.6 0.899999,0.66666 2.566664,1.69999 l 0.966666,0.6 q 2.099998,1.3 3.299997,2.3 1.233332,0.96667 1.966664,2.23333 0.733333,1.26667 0.733333,2.96667 0,3.03333 -1.999998,4.69999 -1.999998,1.63333 -5.066662,1.63333 -1.599998,0 -2.633331,-0.33333 -0.999999,-0.33333 -1.933331,-0.9 -0.733333,-0.46666 -1.133333,-0.46666 -0.299999,0 -0.466666,0.36666 -0.166666,0.33333 -0.266666,1.1 h -0.766666 q 0.133333,-1.83333 0.133333,-7.99999 h 0.766666 q 0.233333,3.36666 1.666665,5.46666 1.433332,2.1 4.399996,2.1 1.799998,0 3.066664,-1.1 1.266665,-1.13333 1.266665,-3.33333 0,-1.86667 -1.266665,-3.16667 -1.233332,-1.29999 -3.93333,-2.93333 -1.966665,-1.19999 -3.199997,-2.13333 -1.199999,-0.93333 -1.966665,-2.23333 -0.766666,-1.33333 -0.766666,-3.1 0,-2.79999 1.799999,-4.26666 1.799998,-1.5 4.466662,-1.5 z"
           id="path375"
           style="fill:#1d2021" /></g><g
         aria-label="T"
         transform="scale(0.99083782,1.0092469)"
         id="text1800"
         style="font-style:normal;font-variant:normal;font-weight:normal;font-stretch:normal;font-size:69.9744px;line-height:1.25;font-family:'Playfair Display SC';-inkscape-font-specification:'Playfair Display SC, Normal';font-variant-ligatures:normal;font-variant-caps:normal;font-variant-numeric:normal;font-variant-east-asian:normal;display:inline;fill:#1d2021;fill-opacity:1;stroke:none;stroke-width:0.5;stroke-miterlimit:4;stroke-dasharray:none"><path
           d="m 66.030075,85.671639 q -0.489821,4.968182 -0.489821,8.956723 0,3.49872 0.209924,5.737898 H 64.140766 Q 63.580971,94.978234 62.741278,92.389181 61.901585,89.730154 59.802353,88.540589 57.703121,87.28105 53.364708,87.28105 H 49.58609 v 39.81544 q 0,2.93892 0.559796,4.26843 0.559795,1.32952 1.959283,1.81934 1.399488,0.48982 4.548336,0.62977 v 1.39949 q -3.638669,-0.20993 -10.286237,-0.20993 -6.99744,0 -10.356212,0.20993 v -1.39949 q 3.148848,-0.13995 4.548336,-0.62977 1.399488,-0.48982 1.959284,-1.81934 0.559795,-1.32951 0.559795,-4.26843 V 87.28105 h -3.778618 q -4.338413,0 -6.437645,1.259539 -2.099232,1.189565 -2.938925,3.848592 -0.839693,2.589053 -1.399488,7.977079 h -1.609411 q 0.209923,-2.239178 0.209923,-5.737898 0,-3.988541 -0.489821,-8.956723 5.807876,0.209923 19.732782,0.209923 13.854932,0 19.662807,-0.209923 z"
           style="fill:#1d2021;fill-opacity:1;stroke:none;stroke-width:0.5;stroke-miterlimit:4;stroke-dasharray:none"
           id="path378" /></g><g
         aria-label="OPOLOGICAL"
         id="text1805"
         style="font-style:normal;font-variant:normal;font-weight:normal;font-stretch:normal;font-size:33.3333px;line-height:1.25;font-family:'Playfair Display SC';-inkscape-font-specification:'Playfair Display SC, Normal';font-variant-ligatures:none;font-variant-position:sub;font-variant-caps:normal;font-variant-numeric:normal;font-variant-east-asian:normal;letter-spacing:0px;display:inline;fill:#1d2021;fill-opacity:1;stroke:none;stroke-width:0.5;stroke-miterlimit:4;stroke-dasharray:none"><path
           d="m 77.020853,86.463828 q 3.166663,0 5.533328,1.433332 2.399997,1.433332 3.699996,4.166663 1.333332,2.699997 1.333332,6.46666 0,3.666667 -1.366665,6.499997 -1.333332,2.83333 -3.766663,4.39999 -2.399998,1.56667 -5.466662,1.56667 -3.166663,0 -5.566661,-1.43333 -2.366665,-1.43334 -3.699997,-4.13333 -1.299998,-2.73333 -1.299998,-6.499997 0,-3.666663 1.333332,-6.499994 1.366665,-2.833331 3.766663,-4.399996 2.433331,-1.566665 5.499995,-1.566665 z m -0.133334,0.6 q -2.133331,0 -3.766663,1.499998 -1.599998,1.466665 -2.499997,4.133329 -0.866666,2.666665 -0.866666,6.099995 0,3.46666 0.966666,6.09999 0.999999,2.63333 2.666664,4.06667 1.666665,1.43333 3.733329,1.43333 2.133332,0 3.73333,-1.46667 1.633332,-1.5 2.499998,-4.16666 0.899999,-2.66666 0.899999,-6.099994 0,-3.466663 -0.999999,-6.099994 -0.966666,-2.633331 -2.633331,-4.066663 -1.666665,-1.433331 -3.73333,-1.433331 z"
           style="font-style:normal;font-variant:normal;font-weight:normal;font-stretch:normal;font-size:33.3333px;font-family:'Playfair Display SC';-inkscape-font-specification:'Playfair Display SC, Normal';font-variant-ligatures:none;font-variant-caps:normal;font-variant-numeric:normal;font-variant-east-asian:normal;fill:#1d2021;fill-opacity:1;stroke:none;stroke-width:0.5;stroke-miterlimit:4;stroke-dasharray:none"
           id="path381" /><path
           d="m 96.28743,100.99715 v 5.99999 q 0,1.26667 0.266666,1.83333 0.266667,0.56667 0.933333,0.76667 0.666666,0.2 2.166664,0.26667 v 0.66666 q -1.733331,-0.1 -4.899995,-0.1 -2.866664,0 -4.266663,0.1 v -0.66666 q 1.199999,-0.0667 1.733332,-0.26667 0.566666,-0.2 0.766666,-0.76667 0.2,-0.56666 0.2,-1.83333 V 90.463824 q 0,-1.266665 -0.2,-1.833331 -0.2,-0.566666 -0.766666,-0.766666 -0.533333,-0.2 -1.733332,-0.266667 v -0.666666 q 1.399999,0.1 4.066663,0.1 l 3.599997,-0.03333 q 0.633332,-0.03333 1.433332,-0.03333 3.899993,0 5.966663,1.799998 2.06666,1.766665 2.06666,4.766662 0,1.833332 -0.83333,3.53333 -0.8,1.666665 -2.76666,2.799997 -1.93334,1.133339 -5.166666,1.133339 z m 2.466664,-13.39999 q -1.033332,0 -1.566665,0.233333 -0.5,0.233334 -0.699999,0.833333 -0.2,0.599999 -0.2,1.799998 v 9.866656 h 2.233331 q 3.266659,0 4.499999,-1.73333 1.26666,-1.766665 1.26666,-4.699996 0,-3.23333 -1.3,-4.766662 -1.26666,-1.533332 -4.233326,-1.533332 z"
           style="font-style:normal;font-variant:normal;font-weight:normal;font-stretch:normal;font-size:33.3333px;font-family:'Playfair Display SC';-inkscape-font-specification:'Playfair Display SC, Normal';font-variant-ligatures:none;font-variant-caps:normal;font-variant-numeric:normal;font-variant-east-asian:normal;fill:#1d2021;fill-opacity:1;stroke:none;stroke-width:0.5;stroke-miterlimit:4;stroke-dasharray:none"
           id="path383" /><path
           d="m 120.95404,86.463828 q 3.16667,0 5.53333,1.433332 2.4,1.433332 3.7,4.166663 1.33333,2.699997 1.33333,6.46666 0,3.666667 -1.36667,6.499997 -1.33333,2.83333 -3.76666,4.39999 -2.4,1.56667 -5.46666,1.56667 -3.16666,0 -5.56666,-1.43333 -2.36667,-1.43334 -3.7,-4.13333 -1.3,-2.73333 -1.3,-6.499997 0,-3.666663 1.33333,-6.499994 1.36667,-2.833331 3.76667,-4.399996 2.43333,-1.566665 5.49999,-1.566665 z m -0.13333,0.6 q -2.13333,0 -3.76666,1.499998 -1.6,1.466665 -2.5,4.133329 -0.86667,2.666665 -0.86667,6.099995 0,3.46666 0.96667,6.09999 1,2.63333 2.66666,4.06667 1.66667,1.43333 3.73333,1.43333 2.13333,0 3.73333,-1.46667 1.63333,-1.5 2.5,-4.16666 0.9,-2.66666 0.9,-6.099994 0,-3.466663 -1,-6.099994 -0.96667,-2.633331 -2.63333,-4.066663 -1.66667,-1.433331 -3.73333,-1.433331 z"
           style="font-style:normal;font-variant:normal;font-weight:normal;font-stretch:normal;font-size:33.3333px;font-family:'Playfair Display SC';-inkscape-font-specification:'Playfair Display SC, Normal';font-variant-ligatures:none;font-variant-caps:normal;font-variant-numeric:normal;font-variant-east-asian:normal;fill:#1d2021;fill-opacity:1;stroke:none;stroke-width:0.5;stroke-miterlimit:4;stroke-dasharray:none"
           id="path385" /><path
           d="m 142.92061,87.59716 q -1.2,0.06667 -1.76666,0.266667 -0.53333,0.2 -0.73333,0.766666 -0.2,0.566666 -0.2,1.833331 v 16.533316 q 0,1.26667 0.2,1.83333 0.2,0.56667 0.73333,0.76667 0.56666,0.16667 1.76666,0.16667 h 2.43333 q 2.06667,0 3.13333,-0.56667 1.1,-0.6 1.6,-1.9 0.5,-1.3 0.73334,-3.76666 h 0.76666 q -0.1,1.03333 -0.1,2.73333 0,1.9 0.23333,4.26666 -2.26666,-0.1 -7.63332,-0.1 -6.4,0 -9.66666,0.1 v -0.66666 q 1.2,-0.0667 1.73333,-0.26667 0.56667,-0.2 0.76667,-0.76667 0.2,-0.56666 0.2,-1.83333 V 90.463824 q 0,-1.266665 -0.2,-1.833331 -0.2,-0.566666 -0.76667,-0.766666 -0.53333,-0.2 -1.73333,-0.266667 v -0.666666 q 1.4,0.1 4.26666,0.1 2.66667,0 4.23333,-0.1 z"
           style="font-style:normal;font-variant:normal;font-weight:normal;font-stretch:normal;font-size:33.3333px;font-family:'Playfair Display SC';-inkscape-font-specification:'Playfair Display SC, Normal';font-variant-ligatures:none;font-variant-caps:normal;font-variant-numeric:normal;font-variant-east-asian:normal;fill:#1d2021;fill-opacity:1;stroke:none;stroke-width:0.5;stroke-miterlimit:4;stroke-dasharray:none"
           id="path387" /><path
           d="m 164.98724,86.463828 q 3.16666,0 5.53333,1.433332 2.39999,1.433332 3.69999,4.166663 1.33333,2.699997 1.33333,6.46666 0,3.666667 -1.36666,6.499997 -1.33333,2.83333 -3.76666,4.39999 -2.4,1.56667 -5.46667,1.56667 -3.16666,0 -5.56666,-1.43333 -2.36666,-1.43334 -3.69999,-4.13333 -1.3,-2.73333 -1.3,-6.499997 0,-3.666663 1.33333,-6.499994 1.36666,-2.833331 3.76666,-4.399996 2.43333,-1.566665 5.5,-1.566665 z m -0.13334,0.6 q -2.13333,0 -3.76666,1.499998 -1.6,1.466665 -2.5,4.133329 -0.86666,2.666665 -0.86666,6.099995 0,3.46666 0.96666,6.09999 1,2.63333 2.66667,4.06667 1.66666,1.43333 3.73333,1.43333 2.13333,0 3.73333,-1.46667 1.63333,-1.5 2.49999,-4.16666 0.9,-2.66666 0.9,-6.099994 0,-3.466663 -1,-6.099994 -0.96666,-2.633331 -2.63333,-4.066663 -1.66666,-1.433331 -3.73333,-1.433331 z"
           style="font-style:normal;font-variant:normal;font-weight:normal;font-stretch:normal;font-size:33.3333px;font-family:'Playfair Display SC';-inkscape-font-specification:'Playfair Display SC, Normal';font-variant-ligatures:none;font-variant-caps:normal;font-variant-numeric:normal;font-variant-east-asian:normal;fill:#1d2021;fill-opacity:1;stroke:none;stroke-width:0.5;stroke-miterlimit:4;stroke-dasharray:none"
           id="path389" /><path
           d="m 189.85386,86.463828 q 1.96666,0 3.23333,0.566666 1.26666,0.533333 2.76666,1.599999 0.43333,0.333333 0.66667,0.333333 0.63333,0 0.83333,-2.033332 h 0.76666 q -0.13333,2.166665 -0.13333,7.66666 h -0.76667 q -0.29999,-1.766665 -0.63333,-2.899998 -0.33333,-1.166665 -1.03333,-2.033331 -0.96667,-1.199999 -2.53333,-1.899998 -1.53333,-0.699999 -3.23333,-0.699999 -2.2,0 -3.86666,1.433331 -1.66667,1.433332 -2.56667,4.099997 -0.9,2.63333 -0.9,6.16666 0,5.999994 1.9,8.799994 1.93333,2.76666 6.03333,2.76666 2,0 3.46666,-1.03333 0.6,-0.4 0.76667,-0.76667 0.2,-0.4 0.2,-1.06666 v -3.2 q 0,-1.4 -0.26667,-2.03333 -0.26667,-0.63333 -0.93333,-0.86667 -0.66667,-0.23333 -2.16667,-0.3 v -0.66666 q 1.73334,0.1 4.7,0.1 2.26666,0 3.46666,-0.1 v 0.66666 q -0.76666,0.0667 -1.13333,0.26667 -0.33333,0.2 -0.46667,0.76667 -0.1,0.56666 -0.1,1.83333 v 6.59999 h -0.66666 q -0.0333,-0.66666 -0.26667,-1.26666 -0.23333,-0.63334 -0.63333,-0.63334 -0.2,0 -0.4,0.1 -0.2,0.1 -0.7,0.46667 -1.16667,0.9 -2.43333,1.33333 -1.23333,0.46667 -2.76667,0.46667 -3.43333,0 -5.89999,-1.4 -2.43333,-1.43333 -3.73333,-4.1 -1.3,-2.66666 -1.3,-6.366657 0,-3.799997 1.36667,-6.666661 1.4,-2.899997 3.83333,-4.433329 2.43333,-1.566665 5.53333,-1.566665 z"
           style="font-style:normal;font-variant:normal;font-weight:normal;font-stretch:normal;font-size:33.3333px;font-family:'Playfair Display SC';-inkscape-font-specification:'Playfair Display SC, Normal';font-variant-ligatures:none;font-variant-caps:normal;font-variant-numeric:normal;font-variant-east-asian:normal;fill:#1d2021;fill-opacity:1;stroke:none;stroke-width:0.5;stroke-miterlimit:4;stroke-dasharray:none"
           id="path391" /><path
           d="m 210.65381,87.59716 q -1.2,0.06667 -1.76666,0.266667 -0.53333,0.2 -0.73333,0.766666 -0.2,0.566666 -0.2,1.833331 v 16.533316 q 0,1.26667 0.2,1.83333 0.2,0.56667 0.73333,0.76667 0.56666,0.2 1.76666,0.26667 v 0.66666 q -1.53333,-0.1 -4.23333,-0.1 -2.86666,0 -4.26666,0.1 v -0.66666 q 1.2,-0.0667 1.73333,-0.26667 0.56667,-0.2 0.76667,-0.76667 0.2,-0.56666 0.2,-1.83333 V 90.463824 q 0,-1.266665 -0.2,-1.833331 -0.2,-0.566666 -0.76667,-0.766666 -0.53333,-0.2 -1.73333,-0.266667 v -0.666666 q 1.4,0.1 4.26666,0.1 2.66667,0 4.23333,-0.1 z"
           style="font-style:normal;font-variant:normal;font-weight:normal;font-stretch:normal;font-size:33.3333px;font-family:'Playfair Display SC';-inkscape-font-specification:'Playfair Display SC, Normal';font-variant-ligatures:none;font-variant-caps:normal;font-variant-numeric:normal;font-variant-east-asian:normal;fill:#1d2021;fill-opacity:1;stroke:none;stroke-width:0.5;stroke-miterlimit:4;stroke-dasharray:none"
           id="path393" /><path
           d="m 224.15371,86.463828 q 2,0 3.4,0.566666 1.4,0.566666 2.73333,1.599999 0.36666,0.299999 0.63333,0.299999 0.66667,0 0.86667,-1.999998 h 0.76666 q -0.13333,2.166665 -0.13333,7.66666 h -0.76667 q -0.36666,-2.166665 -0.66666,-3.099997 -0.3,-0.966666 -1,-1.833332 -1,-1.299999 -2.56667,-1.933331 -1.53333,-0.666666 -3.33333,-0.666666 -2.16666,0 -3.79999,1.433331 -1.6,1.433332 -2.5,4.099997 -0.9,2.63333 -0.9,6.199994 0,3.63333 0.96667,6.23333 0.96666,2.59999 2.66666,3.96666 1.73333,1.33333 3.9,1.33333 1.66666,0 3.23333,-0.63333 1.56666,-0.63333 2.46666,-1.9 0.66667,-0.93333 0.96667,-2 0.3,-1.06666 0.56666,-3.26666 h 0.76667 q 0,5.73333 0.13333,7.99999 h -0.76666 q -0.1,-1.06666 -0.3,-1.5 -0.16667,-0.46666 -0.5,-0.46666 -0.26667,0 -0.7,0.26666 -1.5,1.06667 -2.86667,1.63334 -1.36666,0.53333 -3.29999,0.53333 -3.16667,0 -5.56666,-1.43333 -2.36667,-1.43334 -3.7,-4.13333 -1.3,-2.73333 -1.3,-6.499997 0,-3.666663 1.33333,-6.499994 1.36667,-2.833331 3.76667,-4.399996 2.43333,-1.566665 5.49999,-1.566665 z"
           style="font-style:normal;font-variant:normal;font-weight:normal;font-stretch:normal;font-size:33.3333px;font-family:'Playfair Display SC';-inkscape-font-specification:'Playfair Display SC, Normal';font-variant-ligatures:none;font-variant-caps:normal;font-variant-numeric:normal;font-variant-east-asian:normal;fill:#1d2021;fill-opacity:1;stroke:none;stroke-width:0.5;stroke-miterlimit:4;stroke-dasharray:none"
           id="path395" /><path
           d="m 253.62034,107.73047 q 0.8,2.06667 2.3,2.13334 v 0.66666 q -1.33333,-0.1 -3.56666,-0.1 -2.86667,0 -4.26667,0.1 v -0.66666 q 1.26667,-0.0667 1.8,-0.3 0.56667,-0.26667 0.56667,-0.93334 0,-0.56666 -0.4,-1.56666 l -2.03333,-5.46666 h -8.06666 l -1.36667,3.53333 q -0.66666,1.8 -0.66666,2.73333 0,1.03333 0.7,1.5 0.73333,0.46666 2.19999,0.5 v 0.66666 q -1.89999,-0.1 -3.83333,-0.1 -1.49999,0 -2.49999,0.1 v -0.66666 q 1.66666,-0.4 2.63333,-2.9 l 7.83332,-20.199982 h 0.53334 z m -5.86666,-6.79999 -3.73333,-9.966656 -3.8,9.966656 z"
           style="font-style:normal;font-variant:normal;font-weight:normal;font-stretch:normal;font-size:33.3333px;font-family:'Playfair Display SC';-inkscape-font-specification:'Playfair Display SC, Normal';font-variant-ligatures:none;font-variant-caps:normal;font-variant-numeric:normal;font-variant-east-asian:normal;fill:#1d2021;fill-opacity:1;stroke:none;stroke-width:0.5;stroke-miterlimit:4;stroke-dasharray:none"
           id="path397" /><path
           d="m 264.95362,87.59716 q -1.2,0.06667 -1.76667,0.266667 -0.53333,0.2 -0.73333,0.766666 -0.2,0.566666 -0.2,1.833331 v 16.533316 q 0,1.26667 0.2,1.83333 0.2,0.56667 0.73333,0.76667 0.56667,0.16667 1.76667,0.16667 h 2.43333 q 2.06666,0 3.13333,-0.56667 1.1,-0.6 1.6,-1.9 0.5,-1.3 0.73333,-3.76666 h 0.76667 q -0.1,1.03333 -0.1,2.73333 0,1.9 0.23333,4.26666 -2.26667,-0.1 -7.63333,-0.1 -6.39999,0 -9.66665,0.1 v -0.66666 q 1.19999,-0.0667 1.73333,-0.26667 0.56666,-0.2 0.76666,-0.76667 0.2,-0.56666 0.2,-1.83333 V 90.463824 q 0,-1.266665 -0.2,-1.833331 -0.2,-0.566666 -0.76666,-0.766666 -0.53334,-0.2 -1.73333,-0.266667 v -0.666666 q 1.39999,0.1 4.26666,0.1 2.66666,0 4.23333,-0.1 z"
           style="font-style:normal;font-variant:normal;font-weight:normal;font-stretch:normal;font-size:33.3333px;font-family:'Playfair Display SC';-inkscape-font-specification:'Playfair Display SC, Normal';font-variant-ligatures:none;font-variant-caps:normal;font-variant-numeric:normal;font-variant-east-asian:normal;fill:#1d2021;fill-opacity:1;stroke:none;stroke-width:0.5;stroke-miterlimit:4;stroke-dasharray:none"
           id="path399" /></g></g></g></svg>
